<svg width="390" height="273" viewBox="0 0 390 273" fill="none" xmlns="http://www.w3.org/2000/svg">
<path d="M0 0H390V210C390 237.614 367.614 260 340 260H50C22.3858 260 0 237.614 0 210V0Z" fill="url(#paint0_linear_2_20)"/>
<g filter="url(#filter0_d_2_20)">
<mask id="path-2-inside-1_2_20" fill="white">
<path fill-rule="evenodd" clip-rule="evenodd" d="M194.373 47.8076L163.428 52.1596L168.215 86.1996L134.175 90.9868L138.527 121.932L172.567 117.145L177.355 151.185L208.3 146.833L203.513 112.793L237.553 108.006L233.201 77.0603L199.161 81.8475L194.373 47.8076Z"/>
</mask>
<path fill-rule="evenodd" clip-rule="evenodd" d="M194.373 47.8076L163.428 52.1596L168.215 86.1996L134.175 90.9868L138.527 121.932L172.567 117.145L177.355 151.185L208.3 146.833L203.513 112.793L237.553 108.006L233.201 77.0603L199.161 81.8475L194.373 47.8076Z" fill="url(#paint1_linear_2_20)"/>
<path d="M163.428 52.1596L163.289 51.1694L162.298 51.3086L162.438 52.2989L163.428 52.1596ZM194.373 47.8076L195.364 47.6683L195.224 46.6781L194.234 46.8173L194.373 47.8076ZM168.215 86.1996L168.354 87.1898L169.345 87.0506L169.205 86.0603L168.215 86.1996ZM134.175 90.9868L134.036 89.9966L133.046 90.1358L133.185 91.1261L134.175 90.9868ZM138.527 121.932L137.537 122.072L137.676 123.062L138.666 122.923L138.527 121.932ZM172.567 117.145L173.557 117.006L173.418 116.016L172.428 116.155L172.567 117.145ZM177.355 151.185L176.364 151.324L176.504 152.315L177.494 152.175L177.355 151.185ZM208.3 146.833L208.439 147.823L209.429 147.684L209.29 146.694L208.3 146.833ZM203.513 112.793L203.373 111.803L202.383 111.942L202.522 112.932L203.513 112.793ZM237.553 108.006L237.692 108.996L238.682 108.857L238.543 107.866L237.553 108.006ZM233.201 77.0603L234.191 76.921L234.052 75.9307L233.061 76.07L233.201 77.0603ZM199.161 81.8475L198.17 81.9868L198.31 82.977L199.3 82.8378L199.161 81.8475ZM163.567 53.1499L194.513 48.7978L194.234 46.8173L163.289 51.1694L163.567 53.1499ZM169.205 86.0603L164.418 52.0204L162.438 52.2989L167.225 86.3388L169.205 86.0603ZM134.314 91.9771L168.354 87.1898L168.076 85.2093L134.036 89.9966L134.314 91.9771ZM139.517 121.793L135.165 90.8476L133.185 91.1261L137.537 122.072L139.517 121.793ZM172.428 116.155L138.388 120.942L138.666 122.923L172.706 118.135L172.428 116.155ZM178.345 151.046L173.557 117.006L171.577 117.284L176.364 151.324L178.345 151.046ZM208.161 145.843L177.215 150.195L177.494 152.175L208.439 147.823L208.161 145.843ZM202.522 112.932L207.31 146.972L209.29 146.694L204.503 112.654L202.522 112.932ZM237.413 107.015L203.373 111.803L203.652 113.783L237.692 108.996L237.413 107.015ZM232.21 77.1995L236.562 108.145L238.543 107.866L234.191 76.921L232.21 77.1995ZM199.3 82.8378L233.34 78.0505L233.061 76.07L199.021 80.8573L199.3 82.8378ZM193.383 47.9468L198.17 81.9868L200.151 81.7082L195.364 47.6683L193.383 47.9468Z" fill="#B9B9B9" fill-opacity="0.2" mask="url(#path-2-inside-1_2_20)"/>
</g>
<g filter="url(#filter1_d_2_20)">
<path d="M376.94 199.866C369.354 233.155 334.602 253.62 299.317 245.579C264.032 237.539 241.577 204.038 249.163 170.75C261.18 118.011 339.309 70.0784 339.309 70.0784C339.309 70.0784 388.959 147.124 376.94 199.866Z" fill="url(#paint2_linear_2_20)"/>
<path d="M376.452 199.755C368.934 232.748 334.471 253.077 299.428 245.092C264.386 237.107 242.132 203.853 249.65 170.861C255.621 144.657 278.049 119.579 299.074 101.012C309.574 91.739 319.701 84.1104 327.203 78.8C330.953 76.1451 334.047 74.0701 336.202 72.6593C337.28 71.954 338.123 71.4147 338.696 71.0521C338.875 70.9389 339.028 70.8429 339.153 70.7644C339.232 70.8894 339.328 71.042 339.44 71.2215C339.799 71.7966 340.325 72.6478 340.991 73.7504C342.322 75.9555 344.212 79.1658 346.442 83.1835C350.903 91.2195 356.725 102.482 362.171 115.388C373.076 141.231 382.424 173.549 376.452 199.755Z" stroke="url(#paint3_linear_2_20)" stroke-opacity="0.1"/>
</g>
<defs>
<filter id="filter0_d_2_20" x="109.175" y="37.8076" width="153.378" height="153.378" filterUnits="userSpaceOnUse" color-interpolation-filters="sRGB">
<feFlood flood-opacity="0" result="BackgroundImageFix"/>
<feColorMatrix in="SourceAlpha" type="matrix" values="0 0 0 0 0 0 0 0 0 0 0 0 0 0 0 0 0 0 127 0" result="hardAlpha"/>
<feOffset dy="15"/>
<feGaussianBlur stdDeviation="12.5"/>
<feComposite in2="hardAlpha" operator="out"/>
<feColorMatrix type="matrix" values="0 0 0 0 0.878431 0 0 0 0 0.117647 0 0 0 0 0.215686 0 0 0 1 0"/>
<feBlend mode="normal" in2="BackgroundImageFix" result="effect1_dropShadow_2_20"/>
<feBlend mode="normal" in="SourceGraphic" in2="effect1_dropShadow_2_20" result="shape"/>
</filter>
<filter id="filter1_d_2_20" x="237.69" y="45.0784" width="181.127" height="227.249" filterUnits="userSpaceOnUse" color-interpolation-filters="sRGB">
<feFlood flood-opacity="0" result="BackgroundImageFix"/>
<feColorMatrix in="SourceAlpha" type="matrix" values="0 0 0 0 0 0 0 0 0 0 0 0 0 0 0 0 0 0 127 0" result="hardAlpha"/>
<feOffset dx="15"/>
<feGaussianBlur stdDeviation="12.5"/>
<feComposite in2="hardAlpha" operator="out"/>
<feColorMatrix type="matrix" values="0 0 0 0 0 0 0 0 0 0 0 0 0 0 0 0 0 0 0.1 0"/>
<feBlend mode="normal" in2="BackgroundImageFix" result="effect1_dropShadow_2_20"/>
<feBlend mode="normal" in="SourceGraphic" in2="effect1_dropShadow_2_20" result="shape"/>
</filter>
<linearGradient id="paint0_linear_2_20" x1="-207" y1="-132.943" x2="588.635" y2="464.323" gradientUnits="userSpaceOnUse">
<stop offset="0.117086" stop-color="#F0F0F0"/>
<stop offset="0.490082" stop-color="#E01E37"/>
</linearGradient>
<linearGradient id="paint1_linear_2_20" x1="246.727" y1="150.465" x2="117.984" y2="20.5476" gradientUnits="userSpaceOnUse">
<stop offset="0.343109" stop-color="#C81930"/>
<stop offset="0.965561" stop-color="#FFA9BA"/>
</linearGradient>
<linearGradient id="paint2_linear_2_20" x1="103.96" y1="27.6354" x2="511.172" y2="307.34" gradientUnits="userSpaceOnUse">
<stop offset="0.125697" stop-color="#FFD8DD"/>
<stop offset="0.56915" stop-color="#D71D35"/>
</linearGradient>
<linearGradient id="paint3_linear_2_20" x1="222.499" y1="38.6322" x2="454.725" y2="249.927" gradientUnits="userSpaceOnUse">
<stop offset="0.0251875" stop-color="white" stop-opacity="0.3"/>
<stop offset="1" stop-color="#DF4458"/>
</linearGradient>
</defs>
</svg>
