<!DOCTYPE svg PUBLIC "-//W3C//DTD SVG 1.1//EN" "http://www.w3.org/Graphics/SVG/1.1/DTD/svg11.dtd">
<!-- Uploaded to: SVG Repo, www.svgrepo.com, Transformed by: SVG Repo Mixer Tools -->
<svg fill="#000000" width="800px" height="800px" viewBox="0 0 24 24" id="add-user-5" data-name="Flat Color" xmlns="http://www.w3.org/2000/svg" class="icon flat-color">
<g id="SVGRepo_bgCarrier" stroke-width="0"/>
<g id="SVGRepo_tracerCarrier" stroke-linecap="round" stroke-linejoin="round"/>
<g id="SVGRepo_iconCarrier">
<path id="secondary" d="M19,20a1,1,0,0,1-1-1V18H17a1,1,0,0,1,0-2h1V15a1,1,0,0,1,2,0v1h1a1,1,0,0,1,0,2H20v1A1,1,0,0,1,19,20Z" style="fill: #2ca9bc;"/>
<path id="primary" d="M15,17a4,4,0,0,1,2.63-3.74,6,6,0,0,0-2.31-1.11,6,6,0,1,0-8.64,0A6,6,0,0,0,2,18v1a1,1,0,0,0,.29.71C2.53,19.94,4.77,22,11,22a17.17,17.17,0,0,0,6.88-1.18A4,4,0,0,1,15,17Z" style="fill: #000000;"/>
</g>
</svg>