<!DOCTYPE svg PUBLIC "-//W3C//DTD SVG 1.1//EN" "http://www.w3.org/Graphics/SVG/1.1/DTD/svg11.dtd">
<!-- Uploaded to: SVG Repo, www.svgrepo.com, Transformed by: SVG Repo Mixer Tools -->
<svg width="256px" height="256px" viewBox="-9.1 -9.1 109.20 109.20" enable-background="new 0 0 91 91" id="Layer_1" version="1.1" xml:space="preserve" xmlns="http://www.w3.org/2000/svg" xmlns:xlink="http://www.w3.org/1999/xlink" fill="#000000">
<g id="SVGRepo_bgCarrier" stroke-width="0">
<path transform="translate(-9.1, -9.1), scale(3.4125)" d="M16,31.792489023080893C19.15012043205191,31.236379183205514,20.31667197943387,27.37516584723013,22.796165966994323,25.35411996549248C25.064489873299472,23.50519969696801,28.902897656440544,23.2689868764042,29.85277056913349,20.501038005307C30.80234713620454,17.733952691343212,28.351430601264866,15.055818160090489,27.261936243052812,12.340775096912923C26.2634305687118,9.852477765009393,25.770392572711884,7.093145662628123,23.760401162418873,5.318724144443186C21.6364391852885,3.4436893474151966,18.82503320728696,2.613574224032864,16,2.3987316116690636C12.992318706147469,2.169998687517147,9.934233662737157,2.54416464497782,7.3318688690348335,4.069341027066196C4.545560416920151,5.702321866133232,1.6600072748482328,7.973705322204293,1.0698421943484906,11.148897661078355C0.49277086027678707,14.253643332199282,3.340495176931311,16.794688828795106,4.414686642000346,19.764296497044278C5.437089948546023,22.5907355424953,5.118859955240193,25.94189407972071,7.203963252301877,28.106705951331755C9.464641419382623,30.453804505578354,12.790859570923395,32.35901802051003,16,31.792489023080893" fill="#ffd6d6" strokewidth="0"/>
</g>
<g id="SVGRepo_tracerCarrier" stroke-linecap="round" stroke-linejoin="round"/>
<g id="SVGRepo_iconCarrier"> <g> <path d="M71.619,16.685c-10.5,0-19.045,8.545-19.045,19.051c0,10.504,8.545,19.051,19.045,19.051 c10.508,0,19.055-8.547,19.055-19.051C90.674,25.229,82.127,16.685,71.619,16.685z M79.365,38.407h-5.438v5.439 c0,1.385-1.123,2.506-2.506,2.506s-2.504-1.121-2.504-2.506v-5.439h-5.439c-1.383,0-2.506-1.121-2.506-2.506 c0-1.383,1.123-2.504,2.506-2.504h5.439v-5.436c0-1.383,1.121-2.504,2.504-2.504s2.506,1.121,2.506,2.504v5.436h5.438 c1.383,0,2.504,1.121,2.504,2.504C81.869,37.286,80.748,38.407,79.365,38.407z" fill="#ffffff"/> <g> <polygon fill="#ffffff" points="25.506,55.183 21.086,78.269 26.541,82.632 31.99,78.272 27.504,55.183 "/> <path d="M43.961,47.731c-3.236,3.193-7.326,5.506-11.889,6.576l4.76,24.412c0.18,0.859-0.139,1.744-0.82,2.289 l-2.051,1.639c5.709-0.682,11.896-2.17,18.375-4.889V59.64C52.336,54.269,49.566,50.374,43.961,47.731z" fill="#df4056"/> <path d="M20.922,54.384c-4.67-1.041-8.855-3.381-12.152-6.635c-5.375,2.635-8.027,6.525-8.027,11.891v18.205 c2.584,1.201,9.234,3.908,18.488,4.896l-2.162-1.73c-0.682-0.547-1.002-1.428-0.826-2.283L20.922,54.384z" fill="#df4056"/> <path d="M26.35,50.341c11.309,0,20.506-9.262,20.506-20.648S37.658,9.044,26.35,9.044 c-11.299,0-20.492,9.262-20.492,20.648S15.051,50.341,26.35,50.341z" fill="#df4056"/> </g> </g> </g>
</svg>