<!DOCTYPE svg PUBLIC "-//W3C//DTD SVG 1.1//EN" "http://www.w3.org/Graphics/SVG/1.1/DTD/svg11.dtd">
<!-- Uploaded to: SVG Repo, www.svgrepo.com, Transformed by: SVG Repo Mixer Tools -->
<svg width="256px" height="256px" viewBox="-2.4 -2.4 28.80 28.80" fill="none" xmlns="http://www.w3.org/2000/svg">
<g id="SVGRepo_bgCarrier" stroke-width="0">
<path transform="translate(-2.4, -2.4), scale(0.8999999999999999)" d="M16,29.162390445604135C18.25403924159418,28.563728059173055,18.130839354499262,24.977143581535064,19.937578420605867,23.502428862486642C21.25305367633562,22.428698428158285,23.210993101758405,22.775234637453174,24.7371811041652,22.030840672304485C27.14168860401155,20.85804880838096,30.59973892298843,20.408488935477457,31.4685622105532,17.878223501202285C32.265977038275146,15.555920215549492,29.364487574694195,13.556411857076434,28.426193530590027,11.287366409135114C27.518788362812185,9.093018509004825,28.211101189443518,5.600510960570222,26.016507594155634,4.693700177199435C23.4640122369105,3.639003617698117,20.955862058546018,7.2823027018806235,18.202766629785884,7.063024473317114C16.09319128777876,6.895001258725926,15.07097286925854,3.5581343654160733,12.956867839681532,3.6535274897134933C10.959804802590105,3.7436394188096376,10.036016518408392,6.257620448531694,8.471534656603989,7.502119318747049C6.811199564608318,8.822866587612385,3.946869498388449,9.17507131970641,3.429182942431458,11.232517940085394C2.891136295850304,13.37088186295808,5.956396086609271,15.006905831934374,6.028691016795767,17.21073611206259C6.111747479237655,19.742619695290053,2.6472731602669226,22.15546998441462,3.860453636700843,24.37932384350016C5.010322326185101,26.487122289175595,8.552954605252992,25.052646462955735,10.786854565984509,25.93281875068795C12.716746501785881,26.6932097395727,13.995215215882881,29.694852002170222,16,29.162390445604135" fill="#e2fdf4" strokewidth="0"/>
</g>
<g id="SVGRepo_tracerCarrier" stroke-linecap="round" stroke-linejoin="round"/>
<g id="SVGRepo_iconCarrier"> <path d="M17.62 10.7501C17.19 10.7501 16.85 10.4001 16.85 9.9801C16.85 9.6101 16.48 8.8401 15.86 8.1701C15.25 7.5201 14.58 7.1401 14.02 7.1401C13.59 7.1401 13.25 6.7901 13.25 6.3701C13.25 5.9501 13.6 5.6001 14.02 5.6001C15.02 5.6001 16.07 6.1401 16.99 7.1101C17.85 8.0201 18.4 9.1501 18.4 9.9701C18.4 10.4001 18.05 10.7501 17.62 10.7501Z" fill="#63e7a1"/> <path d="M21.2298 10.75C20.7998 10.75 20.4598 10.4 20.4598 9.98C20.4598 6.43 17.5698 3.55 14.0298 3.55C13.5998 3.55 13.2598 3.2 13.2598 2.78C13.2598 2.36 13.5998 2 14.0198 2C18.4198 2 21.9998 5.58 21.9998 9.98C21.9998 10.4 21.6498 10.75 21.2298 10.75Z" fill="#63e7a1"/> <path opacity="0.4" d="M11.79 14.21L8.52 17.48C8.16 17.16 7.81 16.83 7.47 16.49C6.44 15.45 5.51 14.36 4.68 13.22C3.86 12.08 3.2 10.94 2.72 9.81C2.24 8.67 2 7.58 2 6.54C2 5.86 2.12 5.21 2.36 4.61C2.6 4 2.98 3.44 3.51 2.94C4.15 2.31 4.85 2 5.59 2C5.87 2 6.15 2.06 6.4 2.18C6.66 2.3 6.89 2.48 7.07 2.74L9.39 6.01C9.57 6.26 9.7 6.49 9.79 6.71C9.88 6.92 9.93 7.13 9.93 7.32C9.93 7.56 9.86 7.8 9.72 8.03C9.59 8.26 9.4 8.5 9.16 8.74L8.4 9.53C8.29 9.64 8.24 9.77 8.24 9.93C8.24 10.01 8.25 10.08 8.27 10.16C8.3 10.24 8.33 10.3 8.35 10.36C8.53 10.69 8.84 11.12 9.28 11.64C9.73 12.16 10.21 12.69 10.73 13.22C11.09 13.57 11.44 13.91 11.79 14.21Z" fill="#63e7a1"/> <path d="M21.9696 18.33C21.9696 18.61 21.9196 18.9 21.8196 19.18C21.7896 19.26 21.7596 19.34 21.7196 19.42C21.5496 19.78 21.3296 20.12 21.0396 20.44C20.5496 20.98 20.0096 21.37 19.3996 21.62C19.3896 21.62 19.3796 21.63 19.3696 21.63C18.7796 21.87 18.1396 22 17.4496 22C16.4296 22 15.3396 21.76 14.1896 21.27C13.0396 20.78 11.8896 20.12 10.7496 19.29C10.3596 19 9.96961 18.71 9.59961 18.4L12.8696 15.13C13.1496 15.34 13.3996 15.5 13.6096 15.61C13.6596 15.63 13.7196 15.66 13.7896 15.69C13.8696 15.72 13.9496 15.73 14.0396 15.73C14.2096 15.73 14.3396 15.67 14.4496 15.56L15.2096 14.81C15.4596 14.56 15.6996 14.37 15.9296 14.25C16.1596 14.11 16.3896 14.04 16.6396 14.04C16.8296 14.04 17.0296 14.08 17.2496 14.17C17.4696 14.26 17.6996 14.39 17.9496 14.56L21.2596 16.91C21.5196 17.09 21.6996 17.3 21.8096 17.55C21.9096 17.8 21.9696 18.05 21.9696 18.33Z" fill="#63e7a1"/> </g>
</svg>