<!DOCTYPE svg PUBLIC "-//W3C//DTD SVG 1.1//EN" "http://www.w3.org/Graphics/SVG/1.1/DTD/svg11.dtd">
<!-- Uploaded to: SVG Repo, www.svgrepo.com, Transformed by: SVG Repo Mixer Tools -->
<svg version="1.1" id="Layer_1" xmlns="http://www.w3.org/2000/svg" xmlns:xlink="http://www.w3.org/1999/xlink" viewBox="-51.2 -51.2 614.40 614.40" xml:space="preserve" width="800px" height="800px" fill="#000000">
<g id="SVGRepo_bgCarrier" stroke-width="0">
<path transform="translate(-51.2, -51.2), scale(19.2)" d="M16,29.867504724611837C17.947313349822263,30.206478301710717,20.183229744226825,30.16947751232667,21.80658430159072,29.041801872147687C23.456188453086725,27.89589175094724,23.276031672011786,25.250667881041917,24.694024118756005,23.82813447775087C26.211878822559335,22.305419020090778,29.109946034572395,22.465525492543748,30.205758164768604,20.615730627654745C31.25526181535096,18.844107180502455,30.52672168126826,16.541438027814888,30.21655500480009,14.505779858108063C29.914423078162322,12.522854639342501,29.892943616332747,10.186068039261903,28.41071589083441,8.834669839590791C26.8461882378615,7.408235954168488,23.982561744858266,8.612353551822006,22.31783589503184,7.304244897574364C20.55765868521615,5.921132452117085,21.226841216408893,2.1423186514058923,19.081267931318713,1.5037741149476282C17.030173798088107,0.8933475396181556,15.667278637698326,4.155929981903883,13.600190628935907,4.709784575883301C11.674335219434234,5.225797373292552,9.574043191703861,3.91582818852859,7.686155784611971,4.556975132326064C5.706356363892395,5.229336388171118,3.516971216843584,6.4145845484011,2.7985489659677008,8.378138691807779C2.0502191146451,10.423434725453667,3.549508371037949,12.596371407451205,3.96231281275373,14.73478809381704C4.278741394197673,16.37395688713318,4.90814008482563,17.917838568730573,4.962214085039864,19.586394046572696C5.037937960221906,21.922997335359273,2.882569704221022,24.670425581820098,4.343453413304307,26.49560168920697C5.758407226282981,28.263394619230944,8.853570832702044,26.53646457667102,11.028722027823747,27.16567313880782C12.860473396475864,27.695546026470335,14.121399164682975,29.54049210224858,16,29.867504724611837" fill="#ffebeb" strokewidth="0"/>
</g>
<g id="SVGRepo_tracerCarrier" stroke-linecap="round" stroke-linejoin="round"/>
<g id="SVGRepo_iconCarrier"> <rect x="72.078" y="192.147" style="fill:#939393;" width="95.452" height="121.96"/> <rect x="208.269" y="98.541" style="fill:#df4056;" width="95.452" height="215.576"/> <rect x="344.47" width="95.452" height="314.107"/> <g> <polygon style="fill:#999999;" points="113.022,512 99.429,492.214 202.567,421.303 237.634,468.052 351.405,388.42 365.174,408.078 232.37,501.039 197.19,454.139 "/> <polygon style="fill:#999999;" points="375.783,458.851 351.781,458.851 351.781,394.749 287.687,394.749 287.687,370.747 375.783,370.747 "/> </g> </g>
</svg>