<!DOCTYPE svg PUBLIC "-//W3C//DTD SVG 1.1//EN" "http://www.w3.org/Graphics/SVG/1.1/DTD/svg11.dtd">
<!-- Uploaded to: SVG Repo, www.svgrepo.com, Transformed by: SVG Repo Mixer Tools -->
<svg width="800px" height="800px" viewBox="-2.4 -2.4 28.80 28.80" xmlns="http://www.w3.org/2000/svg" fill="#000000">
<g id="SVGRepo_bgCarrier" stroke-width="0">
<path transform="translate(-2.4, -2.4), scale(0.8999999999999999)" d="M16,26.741490090756038C17.282420180394904,25.90759607079288,17.962620707637903,23.9102990136273,19.490716868497753,23.84027845393372C22.256024648373177,23.713566272180106,24.710189028710968,27.04848676057169,27.35192709468282,26.22132106662664C29.365343953586148,25.590891663065484,29.951387817541203,22.658500063245498,30.001249079391282,20.549281597757076C30.05096414637298,18.446247430549818,28.450076638137844,16.712400691454743,27.62243337278033,14.77843302842765C26.988893662152307,13.298030341807753,26.24557691825073,11.921662575482232,25.666102501688652,10.419273118635545C24.989440012692125,8.664906471453094,25.1353814083663,6.54425371412572,23.899801905729664,5.126855481649972C22.64887995730528,3.691857122678921,20.73871522161917,2.3718471508225574,18.848571502028832,2.5985247425529128C16.787895005716948,2.845653667553688,15.990925718462309,5.98621073314434,13.94266010969325,6.320976806631755C11.741698195056092,6.680699381137716,9.745325560479849,3.8310991929822142,7.599081649072568,4.437127866428973C5.699093300794702,4.973622070163783,4.693354884948586,7.237926131492466,4.065905564014175,9.10984736484916C3.461365680674435,10.913420986300144,4.621182161505022,12.912961838501165,4.141109687987116,14.753580402656338C3.5558303123608055,16.99756676600853,0.5181233501513389,18.605649459885182,0.9973970865361377,20.87464118134559C1.4533743812718738,23.033342208306586,4.757886230401499,23.153830126255706,6.25734545011489,24.772325558913295C7.730927894639676,26.362889960233684,7.5392109547788735,29.800225925354212,9.664492309523801,30.229783254162484C12.053595478200503,30.71266368460192,13.956599390683639,28.07021181125584,16,26.741490090756038" fill="#ffebeb" strokewidth="0"/>
</g>
<g id="SVGRepo_tracerCarrier" stroke-linecap="round" stroke-linejoin="round"/>
<g id="SVGRepo_iconCarrier"> <defs> <style>.cls-1{fill:#ee9696;}.cls-2{fill:#ffeabb;}.cls-3{fill:#f94060;}.cls-4{fill:#f7bf75;}.cls-5{fill:#d67171;}.cls-6{fill:#d62657;}</style> </defs> <g data-name="Pie Chart" id="Pie_Chart"> <path class="cls-1" d="M9.27,4.33a8.57,8.57,0,0,0-7,10.42,8.32,8.32,0,0,0,3.37,5,8.59,8.59,0,0,0,7.92,1A1.26,1.26,0,0,0,14.14,19l-3.58-6.2V5.47A1.14,1.14,0,0,0,9.27,4.33Z"/> <path class="cls-2" d="M14.62,13.53a.68.68,0,0,0-.57.33.67.67,0,0,0,0,.67l3.08,5.33a1.13,1.13,0,0,0,1.68.34A8.54,8.54,0,0,0,22,14.35a.74.74,0,0,0-.2-.57.76.76,0,0,0-.55-.24Z"/> <path class="cls-3" d="M13.06,2.67a.21.21,0,0,0-.21.21v7.67a.65.65,0,0,0,.66.66H20.4a.92.92,0,0,0,.7-.31.93.93,0,0,0,.24-.73A8.56,8.56,0,0,0,13.06,2.67Z"/> <path class="cls-4" d="M19.81,13.53a8.56,8.56,0,0,1-2.73,6.26l.18.29a.93.93,0,0,0,1.35.3,8.62,8.62,0,0,0,3.37-6,.74.74,0,0,0-.2-.57.76.76,0,0,0-.55-.24Z"/> <path class="cls-5" d="M10.56,5.14a.84.84,0,0,0-1-.85,9.31,9.31,0,0,0-1.26.24v5.7A9.63,9.63,0,0,0,9.63,15l2.44,4.22a1,1,0,0,1-.44,1.45,8.47,8.47,0,0,1-2.18.59,10.34,10.34,0,0,0,1.11.07A8.54,8.54,0,0,0,14,20.61a.85.85,0,0,0,.46-.52.81.81,0,0,0-.07-.68c-.74-1.3-2.23-3.89-3.12-5.42a5.17,5.17,0,0,1-.7-2.6Z"/> <path class="cls-6" d="M13.06,2.67a.21.21,0,0,0-.21.21.37.37,0,0,0,0,.08,8.54,8.54,0,0,1,6.34,8.25H20.4a.92.92,0,0,0,.7-.31.93.93,0,0,0,.24-.73A8.56,8.56,0,0,0,13.06,2.67Z"/> </g> </g>
</svg>