<!DOCTYPE svg PUBLIC "-//W3C//DTD SVG 1.1//EN" "http://www.w3.org/Graphics/SVG/1.1/DTD/svg11.dtd">
<!-- Uploaded to: SVG Repo, www.svgrepo.com, Transformed by: SVG Repo Mixer Tools -->
<svg height="256px" width="256px" version="1.1" id="Layer_1" xmlns="http://www.w3.org/2000/svg" xmlns:xlink="http://www.w3.org/1999/xlink" viewBox="-51.2 -51.2 614.40 614.40" xml:space="preserve" fill="#000000">
<g id="SVGRepo_bgCarrier" stroke-width="0">
<path transform="translate(-51.2, -51.2), scale(19.2)" d="M16,29.769868269170587C18.68538074924755,29.037423827337292,19.788334354586343,25.948720359492754,22.005969438286666,24.26650774976018C24.150320088050186,22.639885890630225,27.218231556845595,22.37035971190403,28.708912933363095,20.129376129758793C30.43357324840413,17.536645374771048,31.705654612833378,14.170297908158567,30.676955887663677,11.231167951356554C29.651795720385376,8.302148128112622,26.265080881586833,7.129784972532413,23.601646241970432,5.537231546734262C21.196075255285816,4.09886311115779,18.796903645460752,2.637017151864619,16,2.455342920202959C13.067118139125,2.264836157664449,9.934526081472498,2.6575060483696085,7.645328499617737,4.5007811953980745C5.402517935450247,6.306705247210704,4.999442483482359,9.39984137760704,4.014908745488228,12.105807790260371C2.9864952592298266,14.932376596124433,1.2324494826914476,17.66270698862848,1.7804671416593134,20.620206296905884C2.3621403890043533,23.759335481002665,4.340598337406409,26.624956869618188,7.025382737152627,28.352500943731606C9.636185503706614,30.032440997191987,13.004821459099691,30.586810848056466,16,29.769868269170587" fill="#ffebeb" strokewidth="0"/>
</g>
<g id="SVGRepo_tracerCarrier" stroke-linecap="round" stroke-linejoin="round"/>
<g id="SVGRepo_iconCarrier"> <g> <polygon style="fill:#E21B1B;" points="0.32,161.92 0,128.24 174.8,29.36 320,126.16 466.08,37.44 483.921,59.44 321.68,161.28 173.441,62.48 "/> <polygon style="fill:#E21B1B;" points="450.32,27.44 512,22 485.92,78.16 "/> </g> <polygon points="136.8,489.521 86.16,489.521 86.16,146.56 136.8,119.76 "/> <g> <polygon style="fill:#999999;" points="52.48,489.521 1.84,489.521 1.84,194.08 52.48,169.04 "/> <polygon style="fill:#999999;" points="221.12,489.521 170.48,489.521 170.48,99.04 220.72,134.88 "/> </g> <polygon points="305.441,489.521 254.8,489.521 254.8,154.96 305.441,188.72 "/> <polygon style="fill:#999999;" points="389.76,488.72 338.88,488.72 338.56,185.76 389.76,158.08 "/> <polygon points="474.08,490 423.52,490 423.52,134.32 474.08,103.12 "/> </g>
</svg>