<?xml version="1.0" encoding="iso-8859-1"?>
<!-- Uploaded to: SVG Repo, www.svgrepo.com, Generator: SVG Repo Mixer Tools -->
<!DOCTYPE svg PUBLIC "-//W3C//DTD SVG 1.1//EN" "http://www.w3.org/Graphics/SVG/1.1/DTD/svg11.dtd">
<svg fill="#000000" height="800px" width="800px" version="1.1" id="Capa_1" xmlns="http://www.w3.org/2000/svg" xmlns:xlink="http://www.w3.org/1999/xlink" 
	 viewBox="0 0 56 56" xml:space="preserve">
<g>
	<path d="M41,30c-3.764,0-7.317,1.581-9.75,4.338c-0.365,0.415-0.326,1.047,0.088,1.412c0.415,0.366,1.045,0.327,1.412-0.088
		C34.803,33.335,37.811,32,41,32c6.065,0,11,4.935,11,11s-4.935,11-11,11c-4.992,0-9.407-3.367-10.741-8H35v-2h-8v8h2v-3.664
		C31.093,52.867,35.781,56,41,56c7.168,0,13-5.832,13-13S48.168,30,41,30z"/>
	<path d="M42.824,0H13.176C6.462,0,1,5.462,1,12.176v29.648C1,48.538,6.462,54,13.176,54h13.529
		c-2.242-2.935-3.591-6.587-3.591-10.557c0-6.701,3.804-12.522,9.36-15.443H28c-0.552,0-1-0.447-1-1s0.448-1,1-1h12.557H46
		c0.552,0,1,0.447,1,1c0,0.082-0.028,0.155-0.047,0.231c3.284,1.301,6.089,3.558,8.047,6.443V12.176C55,5.462,49.538,0,42.824,0z
		 M21.688,37.65l-6.857,7.999c-0.197,0.23-0.477,0.35-0.76,0.35c-0.209,0-0.42-0.065-0.6-0.2L8.9,42.37
		c-0.442-0.331-0.531-0.958-0.2-1.399c0.332-0.442,0.958-0.53,1.4-0.2l3.822,2.866l6.248-7.287c0.359-0.42,0.992-0.468,1.41-0.108
		C21.999,36.601,22.047,37.231,21.688,37.65z M21.688,22.65l-6.857,8c-0.197,0.23-0.477,0.35-0.76,0.35c-0.209,0-0.42-0.065-0.6-0.2
		L8.9,27.371c-0.442-0.331-0.531-0.958-0.2-1.399c0.332-0.442,0.958-0.531,1.4-0.2l3.822,2.866l6.248-7.288
		c0.359-0.42,0.992-0.468,1.41-0.108C21.999,21.601,22.047,22.231,21.688,22.65z M21.688,8.65l-6.857,8
		c-0.197,0.23-0.477,0.35-0.76,0.35c-0.209,0-0.42-0.065-0.6-0.2L8.9,13.371c-0.442-0.331-0.531-0.958-0.2-1.399
		c0.332-0.442,0.958-0.531,1.4-0.2l3.822,2.866l6.248-7.288c0.359-0.42,0.992-0.468,1.41-0.108
		C21.999,7.601,22.047,8.231,21.688,8.65z M46,14H28c-0.552,0-1-0.447-1-1s0.448-1,1-1h18c0.552,0,1,0.447,1,1S46.552,14,46,14z"/>
</g>
</svg>