<!DOCTYPE svg PUBLIC "-//W3C//DTD SVG 1.1//EN" "http://www.w3.org/Graphics/SVG/1.1/DTD/svg11.dtd">
<!-- Uploaded to: SVG Repo, www.svgrepo.com, Transformed by: SVG Repo Mixer Tools -->
<svg height="800px" width="800px" version="1.1" id="Layer_1" xmlns="http://www.w3.org/2000/svg" xmlns:xlink="http://www.w3.org/1999/xlink" viewBox="0 0 502 502" xml:space="preserve" fill="#df4056">
<g id="SVGRepo_bgCarrier" stroke-width="0"/>
<g id="SVGRepo_tracerCarrier" stroke-linecap="round" stroke-linejoin="round"/>
<g id="SVGRepo_iconCarrier"> <g> <g> <path style="fill:#df4056;" d="M415.672,327.328C415.672,418.274,341.946,492,251,492S86.329,418.274,86.329,327.328 S251,10,251,10S415.672,236.383,415.672,327.328z"/> <path d="M251,502c-96.314,0-174.671-78.357-174.671-174.671c0-93.127,159.783-313.86,166.584-323.211 C244.795,1.531,247.801,0,251,0s6.205,1.531,8.087,4.118c6.802,9.351,166.584,230.083,166.584,323.211 C425.671,423.643,347.314,502,251,502z M251,27.23c-13.991,19.848-44.075,63.457-73.853,112.626 c-52.872,87.303-80.819,152.13-80.819,187.473C96.329,412.615,165.714,482,251,482s154.671-69.385,154.671-154.671 c0-35.359-27.971-100.226-80.889-187.588C295.015,90.597,264.977,47.057,251,27.23z"/> </g> <g> <path d="M246.849,461.742c-5.523,0-10-4.477-10-10s4.477-10,10-10c40.745,0,78.553-20.29,101.135-54.276 c3.057-4.6,9.264-5.851,13.863-2.795c4.6,3.057,5.851,9.264,2.795,13.863C338.343,438.113,294.308,461.742,246.849,461.742z"/> </g> <g> <path d="M374.842,360.002c-0.743,0-1.498-0.083-2.253-0.257c-5.382-1.239-8.74-6.607-7.501-11.989 c2.052-8.91,3.092-18.111,3.092-27.346c0-5.523,4.477-10,10-10s10,4.477,10,10c0,10.744-1.212,21.454-3.602,31.834 C383.513,356.871,379.396,360.002,374.842,360.002z"/> </g> <g> <polygon style="fill:#ffffff;" points="339.5,284.5 285,284.5 285,230 217,230 217,284.5 162.5,284.5 162.5,352.5 217,352.5 217,407 285,407 285,352.5 339.5,352.5 "/> <path d="M285,417h-68c-5.523,0-10-4.477-10-10v-44.5h-44.5c-5.523,0-10-4.477-10-10v-68c0-5.523,4.477-10,10-10H207V230 c0-5.523,4.477-10,10-10h68c5.523,0,10,4.477,10,10v44.5h44.5c5.523,0,10,4.477,10,10v68c0,5.523-4.477,10-10,10H295V407 C295,412.523,290.523,417,285,417z M227,397h48v-44.5c0-5.523,4.477-10,10-10h44.5v-48H285c-5.523,0-10-4.477-10-10V240h-48v44.5 c0,5.523-4.477,10-10,10h-44.5v48H217c5.523,0,10,4.477,10,10V397z"/> </g> </g> </g>
</svg>