<?xml version="1.0" encoding="utf-8"?>

<!DOCTYPE svg PUBLIC "-//W3C//DTD SVG 1.1//EN" "http://www.w3.org/Graphics/SVG/1.1/DTD/svg11.dtd">
<!-- Uploaded to: SVG Repo, www.svgrepo.com, Generator: SVG Repo Mixer Tools -->
<svg height="800px" width="800px" version="1.1" id="_x32_" xmlns="http://www.w3.org/2000/svg" xmlns:xlink="http://www.w3.org/1999/xlink" 
	 viewBox="0 0 512 512"  xml:space="preserve">
<style type="text/css">
	.st0{fill:#000000;}
</style>
<g>
	<path class="st0" d="M432.871,404.268c-10.756-18.361-27.411-29.408-43.426-36.782c-16.038-7.367-31.903-11.337-41.438-14.935
		c-7.56-2.808-15.799-7.195-21.676-11.948c-2.943-2.346-5.274-4.782-6.674-6.904c-1.446-2.13-1.885-3.784-1.885-4.894
		c0-7.591,0-11.025,0-22.57c10.116-11.263,24.655-28.7,30.615-56.358c2.093-0.938,4.156-1.996,6.138-3.389
		c4.96-3.412,9.154-8.365,12.708-15.106c3.59-6.771,6.756-15.427,10.138-27.27c1.706-6.011,2.51-11.226,2.51-15.874
		c0-5.356-1.103-9.996-3.129-13.772c-1.743-3.293-4.127-5.661-6.592-7.419c32.73-73.058-9.289-131.94-9.289-131.94l12.335-31.709
		c0,0-52.849,3.523-99.814-1.758c-135.694-15.247-143.277,79.858-143.277,122.13c0,25.326,3.784,40.045,7.061,48.06
		c-0.663,0.871-1.378,1.631-1.929,2.644c-2.018,3.769-3.121,8.417-3.121,13.772c0.015,4.64,0.797,9.855,2.518,15.866
		c4.529,15.769,8.611,25.944,13.9,33.422c2.652,3.71,5.654,6.69,8.931,8.954c1.996,1.393,4.06,2.451,6.138,3.389
		c5.974,27.642,20.506,45.087,30.622,56.35c0,11.546,0,14.987,0,22.578c0.022,0.946-0.455,2.681-2.026,4.924
		c-2.287,3.359-6.771,7.359-11.985,10.741c-5.192,3.404-11.106,6.287-16.074,8.03c-6.458,2.279-15.732,4.819-25.885,8.409
		c-15.248,5.401-32.73,13.178-46.726,27.151c-14.018,13.914-23.985,34.316-23.902,62.324c0,3.561,0.156,7.256,0.484,11.062
		c0.209,2.391,1.042,4.365,2.048,6.049c1.944,3.136,4.558,5.571,7.844,8.045c5.758,4.268,13.75,8.469,24.141,12.611
		c31.062,12.342,83.614,23.836,153.855,23.85c57.073-0.007,102.495-7.612,134.168-17.072c15.836-4.738,28.208-9.908,37.095-15.025
		c4.461-2.57,8.052-5.117,10.89-7.888c1.415-1.386,2.652-2.831,3.672-4.522c1.02-1.684,1.855-3.658,2.064-6.041
		c0.32-3.814,0.469-7.493,0.469-11.039C444.38,431.754,440.045,416.477,432.871,404.268z M243.374,496.291
		c-0.246-0.008-0.492-0.008-0.745-0.008l-24.812-58.228l0.32,0.253l22.57-28.216l3.702,15.575h0.991L243.374,496.291z
		 M212.975,426.704l-28.462-66.756c3.568-2.071,7.076-4.35,10.294-6.905c1.966-1.579,3.844-3.24,5.564-5.006l47.56,34.965
		L212.975,426.704z M207.068,338.979c1.572-3.053,2.645-6.435,2.66-10.174c0-8.224,0-11.441,0-25.535v-2.979l-1.982-2.205
		c-10.57-11.776-24.879-27.404-29.848-55.173l-0.79-4.447l-4.238-1.505c-2.696-0.96-4.744-1.951-6.548-3.195
		c-2.644-1.869-5.05-4.425-7.858-9.653c-2.764-5.2-5.714-12.976-8.916-24.261c-1.423-4.924-1.915-8.76-1.915-11.605
		c0-3.314,0.633-5.236,1.282-6.465c0.976-1.774,2.175-2.533,3.702-3.143c1.043-0.403,2.145-0.552,2.778-0.604l6.011,1.274
		l8.633,14.92c0,0-0.469-74.205,7.047-79.851c9.393-7.054,63.426,14.093,79.858,14.093c16.446,0,68.7-22.905,77.974-15.97
		c10.786,8.067,8.931,88.774,8.931,88.774l8.834-22.86l3.621-0.388c0.633,0.008,2.942,0.276,4.514,1.311
		c0.879,0.574,1.609,1.236,2.272,2.443c0.641,1.229,1.274,3.151,1.274,6.458c0.014,2.853-0.492,6.689-1.899,11.62
		c-4.276,15.046-8.104,23.806-11.628,28.663c-1.758,2.458-3.367,3.986-5.162,5.244c-1.788,1.244-3.851,2.235-6.548,3.195
		l-4.238,1.505l-0.782,4.447c-4.953,27.769-19.27,43.397-29.84,55.173l-1.996,2.205v2.979c0,14.094,0,17.311,0,25.535
		c0.015,3.724,1.035,7.143,2.592,10.235l-48.857,35.895L207.068,338.979z M269.341,496.35c-0.246,0.015-0.462,0.022-0.716,0.022
		l-2.033-70.704h1.028l3.695-15.575l22.562,28.208l0.32-0.246L269.341,496.35z M299.024,426.704l-34.95-43.694l47.516-34.928
		c3.247,3.315,6.994,6.294,11.054,8.968c1.564,1.021,3.248,1.862,4.886,2.793L299.024,426.704z"/>
</g>
</svg>