<!DOCTYPE svg PUBLIC "-//W3C//DTD SVG 1.1//EN" "http://www.w3.org/Graphics/SVG/1.1/DTD/svg11.dtd">
<!-- Uploaded to: SVG Repo, www.svgrepo.com, Transformed by: SVG Repo Mixer Tools -->
<svg height="256px" width="256px" version="1.1" id="Layer_1" xmlns="http://www.w3.org/2000/svg" xmlns:xlink="http://www.w3.org/1999/xlink" viewBox="-51.2 -51.2 614.40 614.40" xml:space="preserve" fill="#000000">
<g id="SVGRepo_bgCarrier" stroke-width="0">
<path transform="translate(-51.2, -51.2), scale(19.2)" d="M16,27.175613171110548C18.24687335242126,26.932977837997935,20.34101720265367,28.951658142162135,22.55198826886219,28.483770643842078C24.881375527499447,27.990823814405996,27.186309219473376,26.6066695427537,28.391587555376418,24.553295317154415C29.59066413119119,22.51048672933295,28.977028091026412,19.94180370248357,28.95623195772064,17.573171379394072C28.937624892903866,15.453868982414512,28.81222342039459,13.394799989783198,28.275616649491592,11.344472687588386C27.69416896415039,9.12281219298283,27.566475097240346,6.384297502747077,25.683750075753814,5.069305769865011C23.76728097107433,3.730745438315584,21.10608857039536,4.963673271357117,18.781860897797383,4.713546670775596C16.797372627801863,4.499981833423391,14.908980743452911,3.2334494218058167,12.96855231935205,3.7009332872434815C11.026549471135237,4.168796459571533,9.954688392914413,6.211203102669792,8.249125117320837,7.251070845918708C6.126682456110531,8.545106483218577,2.561269843093644,8.244832302718976,1.6944896237862963,10.574635541652484C0.8253597649396032,12.91075433519506,4.114426572288179,14.933012776027677,4.4734752222730005,17.39957349817213C4.820296008229725,19.782132319380043,2.9581350916901767,22.19293655058171,3.718275660394193,24.477462214674283C4.508437904908359,26.852214991607692,6.216236328328616,29.446841993048018,8.660702725463214,29.983862623460304C11.256816670680927,30.55419844362833,13.357340095076232,27.460988697792356,16,27.175613171110548" fill="#ffebeb" strokewidth="0"/>
</g>
<g id="SVGRepo_tracerCarrier" stroke-linecap="round" stroke-linejoin="round"/>
<g id="SVGRepo_iconCarrier"> <path style="fill:#E6E9ED;" d="M405.271,0.015c-44.169,0-49.403,31.436-106.696,30.483l0.031,231.626 c0,8.421,6.827,15.248,15.248,15.248h91.448h91.447c8.421,0,15.249-6.827,15.249-15.248l-0.031-231.626 C454.675,31.45,449.425,0.015,405.271,0.015z"/> <path style="fill:#df4056;" d="M394.632,234.001v85.994c0,22.795-8.875,44.216-24.983,60.34 c-16.124,16.108-37.544,24.982-60.34,24.982h-81.8v21.343h81.8c58.902,0,106.665-47.763,106.665-106.665v-85.994L394.632,234.001 L394.632,234.001z"/> <path style="fill:#F5F7FA;" d="M458.628,64.011h-106.65c-11.733,0-21.342,9.593-21.342,21.327v111.321 c0,11.733,4.812,27.482,10.671,34.998c5.874,7.53,20.265,13.67,31.998,13.67H437.3c11.734,0,26.14-6.14,31.998-13.67 c5.875-7.516,10.672-23.265,10.672-34.998V85.338C479.97,73.604,470.36,64.011,458.628,64.011z"/> <path style="fill:#E6E9ED;" d="M202.612,305.979c-28.374-13.748-58.942-7.937-79.987,16.672 c-21.054-24.608-51.622-30.42-79.995-16.672c-36.106,19.578-53.31,64.23-35.614,111.01c22.428,62.121,103.766,91.213,115.609,94.994 c11.835-3.781,93.174-32.873,115.602-94.994C255.921,370.21,238.726,325.558,202.612,305.979z"/> <g> <path style="fill:#df4056;" d="M238.226,416.989c4.586-12.141,6.828-24.124,7-35.561c-32.709-10.516-83.189-3.328-116.656,9.78 c-37.334,14.64-71.848,22.358-102.854,11.343c-2.875-1.016-18.131-6.952-24.865-9.796c1.047,7.921,3.07,16.046,6.164,24.233 c22.428,62.121,103.766,91.213,115.609,94.994C134.459,508.202,215.798,479.11,238.226,416.989z"/> <path style="fill:#df4056;" d="M472.157,132.632c-18.107,1.875-36.481,7.109-54.199,13.687 c-27.889,10.358-54.168,16.937-78.464,14.921h-8.858v35.42c0,11.733,4.812,27.482,10.671,34.998 c5.874,7.53,20.265,13.67,31.998,13.67H437.3c11.734,0,26.14-6.14,31.998-13.67c5.875-7.516,10.672-23.265,10.672-34.998v-64.027 h-7.813V132.632z"/> </g> <g style="opacity:0.2;"> <path style="fill:#FFFFFF;" d="M202.612,305.979c-13.593-6.577-27.694-8.671-41.013-6.358c6.585,1.109,13.186,3.219,19.686,6.358 c36.107,19.578,53.309,64.23,35.607,111.01c-18.796,52.074-78.979,80.932-104.939,91.135c5.008,1.969,8.758,3.25,10.672,3.859 c11.835-3.781,93.174-32.873,115.602-94.994C255.921,370.21,238.726,325.558,202.612,305.979z"/> </g> <path style="opacity:0.2;fill:#FFFFFF;enable-background:new ;" d="M458.628,64.011H437.3c11.734,0,21.328,9.593,21.328,21.327 v111.321c0,11.733-4.797,27.482-10.656,34.998c-5.875,7.53-20.264,13.67-31.998,13.67H437.3c11.734,0,26.14-6.14,31.998-13.67 c5.875-7.516,10.672-23.265,10.672-34.998V85.338C479.97,73.604,470.36,64.011,458.628,64.011z"/> </g>
</svg>