<!DOCTYPE svg PUBLIC "-//W3C//DTD SVG 1.1//EN" "http://www.w3.org/Graphics/SVG/1.1/DTD/svg11.dtd">
<!-- Uploaded to: SVG Repo, www.svgrepo.com, Transformed by: SVG Repo Mixer Tools -->
<svg height="256px" width="256px" version="1.1" id="Layer_1" xmlns="http://www.w3.org/2000/svg" xmlns:xlink="http://www.w3.org/1999/xlink" viewBox="-51.16 -51.16 613.93 613.93" xml:space="preserve" fill="#000000">
<g id="SVGRepo_bgCarrier" stroke-width="0" transform="translate(0,0), scale(1)">
<path transform="translate(-51.16, -51.16), scale(19.1853125)" d="M16,30.090926953125745C17.893051839576923,29.69230207057798,19.88409735763107,29.296265650037512,21.366421366133327,28.053179732600753C22.783648913692353,26.864684102718783,22.62314154831334,24.40557980931305,24.102843567947815,23.29583311889295C26.064199320560828,21.82485583676666,29.518389151654162,22.844812714596493,30.957572299682408,20.860009847994544C32.22378412316262,19.113754786286798,31.614898073325335,16.32151224168484,30.49796960465701,14.476201991797506C29.335498772405863,12.555649868611276,26.300967139492272,12.616694441171507,24.904245584412486,10.85913141490892C23.77793359208367,9.441837963287348,24.917426304483488,6.802967944652556,23.502588851933353,5.673572347470358C22.1122280140792,4.563715235660978,19.96713090570077,5.892654663856504,18.22586898765399,5.528109740928736C16.49106492994,5.164916814603487,15.112351026187524,3.3306427782398402,13.353410072488249,3.5487733395858C11.621624223405842,3.763536330121023,10.478093806421503,5.45384765932334,9.204550034404729,6.6468655258882094C8.03033697963096,7.746833335616833,7.188031329874255,9.086764947329815,6.139177516660451,10.30685148481279C4.892432798619106,11.757136002060554,2.9492532881780824,12.73992177246958,2.393474703794526,14.569896564119231C1.8393646143651856,16.394377614570494,2.1914584115225413,18.524669894055073,3.1412044390619016,20.17807594758105C4.0798551148512425,21.812166182753977,6.5855195557539705,21.982563480010167,7.573306608907661,23.587428809397416C8.850078113057254,25.6618094302178,7.594931381852669,29.05880642421933,9.523245744729909,30.547028232877206C11.255513407319794,31.88394640531276,13.85878368575936,30.54180847888697,16,30.090926953125745" fill="#ffebeb" strokewidth="0"/>
</g>
<g id="SVGRepo_tracerCarrier" stroke-linecap="round" stroke-linejoin="round" stroke="#CCCCCC" stroke-width="3.069648"/>
<g id="SVGRepo_iconCarrier"> <path style="fill:#df4056;" d="M384.33,321.717l-1.514-0.438c-22.046-5.917-29.509-11.6-39.314-15.331 c-34.801-13.255-43.855-22.811-46.182-27.338c-0.078-0.156-0.141-0.328-0.219-0.5l-0.281-40.43l-82.537-0.937l-82.545,0.937 l-0.296,40.43c-0.062,0.172-0.125,0.344-0.219,0.5c-2.311,4.527-11.366,14.083-46.167,27.338 c-9.82,3.731-17.268,9.414-39.313,15.331l-1.515,0.438c-20.062,6.636-33.567,25.246-33.567,46.245v58.377h203.622h203.599v-58.377 C417.882,346.963,404.377,328.353,384.33,321.717z"/> <polygon style="fill:#a09c9c;" points="259.358,426.339 170.536,426.339 183.199,346.401 245.228,319.75 "/> <polygon style="fill:#a09c9c;" points="245.368,346.401 183.199,346.401 165.431,257.573 263.136,257.573 "/> <polygon style="fill:#F5F7FA;" points="131.223,232.092 131.223,278.611 168.85,321.983 218.312,282.014 "/> <path style="fill:#e0e0e0;" d="M328.811,159.461c0,74.411-70.937,142.913-114.527,142.913S99.748,233.871,99.748,159.461 c0-74.426,51.272-123.528,114.536-123.528C277.524,35.932,328.811,85.034,328.811,159.461z"/> <path style="fill:#333333;" d="M285.127,23.661c-19.478-17.643-87.144-42.998-149.891,0C85.743,57.556,90.74,143.036,90.74,143.036 s64.949,16.425,139.329-26.089c48.08-27.463,64.833,0.469,73.45,24.793c8.4,23.685,25.293,17.721,25.293,17.721 S347.453,80.085,285.127,23.661z"/> <path style="fill:#F6BB42;" d="M261.95,105.706c8.415-0.609,15.199,1.343,20.742,4.902c2.279-8.509,5.151-15.41,8.273-20.983 l13.381-16.284c5.246-4.2,10.008-6.042,12.881-6.838c-2.998-6.261-6.589-12.553-10.867-18.735 C292.98,53.059,272.028,67.346,261.95,105.706z"/> <path style="fill:#df4056;" d="M330.404,458.314c-31.304,0-60.741-12.193-82.896-34.333c-22.139-22.154-34.333-51.584-34.333-82.903 s12.193-60.765,34.333-82.912c22.155-22.139,51.592-34.349,82.896-34.349c31.319,0,60.765,12.209,82.904,34.349 c22.154,22.147,34.349,51.593,34.349,82.912s-12.194,60.749-34.349,82.903C391.168,446.12,361.723,458.314,330.404,458.314z"/> <g> <path style="fill:#434A54;" d="M420.849,250.624c-24.965-24.965-57.705-37.455-90.445-37.455c-32.724,0-65.456,12.49-90.421,37.455 c-49.945,49.954-49.945,130.937,0,180.882c24.965,24.98,57.698,37.471,90.421,37.471c32.74,0,65.465-12.49,90.445-37.471 C470.794,381.561,470.794,300.577,420.849,250.624z M405.783,416.44c-20.141,20.125-46.901,31.211-75.379,31.211 c-28.462,0-55.222-11.086-75.355-31.211c-20.125-20.124-31.21-46.9-31.21-75.362c0-28.478,11.085-55.238,31.21-75.371 c20.133-20.141,46.893-31.226,75.355-31.226c28.478,0,55.238,11.085,75.379,31.226c20.125,20.133,31.21,46.894,31.21,75.371 C436.992,369.539,425.908,396.316,405.783,416.44z"/> <path style="fill:#434A54;" d="M497.821,493.411c-0.406-0.406-0.828-0.749-1.281-1.077l-73.442-73.442l-15.066,15.081 l74.614,74.614l0.109-0.094c4.152,4.153,10.896,4.153,15.066,0C501.989,504.325,501.989,497.58,497.821,493.411z"/> </g> <path style="fill:#f4a4a4;" d="M330.404,255.792c-47.088,0-85.253,38.197-85.253,85.286c0,5.886,4.777,10.647,10.664,10.647 c5.886,0,10.647-4.762,10.647-10.647c0-35.27,28.689-63.95,63.942-63.95c5.886,0,10.663-4.777,10.663-10.672 C341.067,260.57,336.289,255.792,330.404,255.792z"/> </g>
</svg>